<?xml version="1.0" encoding="UTF-8"?>
<svg xmlns="http://www.w3.org/2000/svg" xmlns:xlink="http://www.w3.org/1999/xlink" width="375pt" height="374.999991pt" viewBox="0 0 375 374.999991" version="1.2">
<defs>
<clipPath id="clip1">
  <path d="M 139 313 L 236 313 L 236 373.921875 L 139 373.921875 Z M 139 313 "/>
</clipPath>
<clipPath id="clip2">
  <path d="M 175 179 L 200 179 L 200 373.921875 L 175 373.921875 Z M 175 179 "/>
</clipPath>
</defs>
<g id="surface1">
<path style=" stroke:none;fill-rule:nonzero;fill:rgb(93.328857%,96.078491%,99.21875%);fill-opacity:1;" d="M 305.570312 144.121094 C 305.945312 142.648438 306.285156 141.171875 306.589844 139.683594 C 306.898438 138.195312 307.167969 136.703125 307.402344 135.203125 C 307.640625 133.703125 307.839844 132.199219 308.007812 130.691406 C 308.171875 129.179688 308.300781 127.667969 308.398438 126.15625 C 308.492188 124.640625 308.550781 123.121094 308.574219 121.605469 C 308.597656 120.085938 308.585938 118.570312 308.539062 117.050781 C 308.492188 115.535156 308.40625 114.019531 308.289062 112.503906 C 308.171875 110.992188 308.015625 109.484375 307.828125 107.976562 C 307.636719 106.46875 307.414062 104.96875 307.152344 103.472656 C 306.894531 101.976562 306.597656 100.488281 306.269531 99.007812 C 305.941406 97.523438 305.574219 96.050781 305.175781 94.585938 C 304.777344 93.121094 304.347656 91.667969 303.878906 90.222656 C 303.414062 88.777344 302.910156 87.347656 302.378906 85.925781 C 301.84375 84.503906 301.277344 83.097656 300.675781 81.703125 C 300.078125 80.308594 299.445312 78.925781 298.78125 77.5625 C 298.117188 76.199219 297.417969 74.847656 296.691406 73.515625 C 295.964844 72.183594 295.207031 70.871094 294.417969 69.574219 C 293.628906 68.277344 292.808594 67 291.957031 65.742188 C 291.109375 64.484375 290.230469 63.246094 289.324219 62.03125 C 288.417969 60.8125 287.480469 59.617188 286.515625 58.445312 C 285.554688 57.269531 284.5625 56.121094 283.546875 54.996094 C 282.53125 53.867188 281.488281 52.765625 280.417969 51.6875 C 279.347656 50.609375 278.253906 49.558594 277.136719 48.53125 C 276.019531 47.503906 274.878906 46.503906 273.710938 45.53125 C 272.546875 44.558594 271.359375 43.613281 270.152344 42.699219 C 268.941406 41.78125 267.710938 40.890625 266.460938 40.03125 C 265.210938 39.171875 263.9375 38.34375 262.648438 37.542969 C 261.359375 36.742188 260.050781 35.972656 258.726562 35.234375 C 257.398438 34.496094 256.058594 33.789062 254.699219 33.113281 C 253.339844 32.4375 251.964844 31.792969 250.574219 31.183594 C 249.1875 30.570312 247.78125 29.992188 246.367188 29.449219 C 244.949219 28.902344 243.523438 28.390625 242.082031 27.914062 C 240.640625 27.433594 239.191406 26.988281 237.730469 26.578125 C 236.269531 26.167969 234.796875 25.792969 233.320312 25.453125 C 231.839844 25.109375 230.355469 24.804688 228.863281 24.53125 C 227.367188 24.257812 225.871094 24.023438 224.363281 23.820312 C 222.859375 23.621094 221.351562 23.453125 219.839844 23.324219 C 218.328125 23.191406 216.8125 23.097656 215.296875 23.039062 C 213.78125 22.976562 212.265625 22.953125 210.746094 22.964844 C 209.230469 22.976562 207.710938 23.023438 206.195312 23.105469 C 204.679688 23.1875 203.167969 23.304688 201.660156 23.460938 C 200.148438 23.613281 198.644531 23.800781 197.140625 24.027344 C 195.640625 24.25 194.144531 24.507812 192.65625 24.804688 C 191.167969 25.097656 189.6875 25.425781 188.214844 25.789062 C 186.738281 26.152344 185.277344 26.550781 183.820312 26.984375 C 182.367188 27.417969 180.921875 27.882812 179.488281 28.382812 C 178.054688 28.882812 176.636719 29.417969 175.226562 29.984375 C 173.820312 30.550781 172.425781 31.148438 171.046875 31.78125 C 169.664062 32.414062 168.300781 33.078125 166.953125 33.773438 C 165.605469 34.46875 164.273438 35.195312 162.957031 35.957031 C 161.644531 36.714844 160.347656 37.503906 159.070312 38.320312 C 157.792969 39.140625 156.535156 39.988281 155.296875 40.867188 C 154.058594 41.746094 152.839844 42.652344 151.644531 43.589844 C 150.449219 44.523438 149.277344 45.488281 148.125 46.476562 C 146.976562 47.46875 145.851562 48.484375 144.746094 49.527344 C 143.644531 50.570312 142.566406 51.640625 141.515625 52.734375 C 140.460938 53.828125 139.4375 54.945312 138.4375 56.085938 C 137.4375 57.226562 136.460938 58.390625 135.515625 59.578125 C 134.570312 60.765625 133.65625 61.976562 132.765625 63.207031 C 131.875 64.4375 131.015625 65.6875 130.1875 66.957031 C 129.355469 68.230469 128.554688 69.519531 127.785156 70.828125 C 127.015625 72.136719 126.277344 73.460938 125.570312 74.804688 C 124.863281 76.148438 124.1875 77.503906 123.542969 78.878906 C 122.898438 80.253906 122.289062 81.644531 121.707031 83.046875 C 119.839844 83.203125 117.984375 83.441406 116.136719 83.769531 C 114.292969 84.097656 112.464844 84.507812 110.660156 85.003906 C 108.851562 85.503906 107.070312 86.082031 105.316406 86.746094 C 103.5625 87.40625 101.84375 88.148438 100.160156 88.972656 C 98.476562 89.792969 96.832031 90.691406 95.230469 91.667969 C 93.632812 92.644531 92.078125 93.691406 90.574219 94.808594 C 89.070312 95.929688 87.625 97.117188 86.230469 98.371094 C 84.835938 99.625 83.503906 100.941406 82.234375 102.320312 C 80.964844 103.699219 79.757812 105.132812 78.621094 106.621094 C 77.484375 108.113281 76.417969 109.652344 75.425781 111.242188 C 74.429688 112.832031 73.511719 114.460938 72.667969 116.136719 C 71.828125 117.8125 71.0625 119.523438 70.378906 121.269531 C 69.695312 123.015625 69.09375 124.789062 68.578125 126.589844 C 68.058594 128.390625 67.625 130.210938 67.273438 132.054688 C 66.925781 133.898438 66.660156 135.75 66.484375 137.617188 C 66.308594 139.484375 66.21875 141.355469 66.214844 143.230469 C 66.214844 143.65625 66.335938 144.039062 66.335938 144.445312 C 64.511719 144.8125 62.710938 145.265625 60.929688 145.804688 C 59.148438 146.339844 57.394531 146.957031 55.671875 147.652344 C 53.945312 148.351562 52.257812 149.125 50.601562 149.976562 C 48.949219 150.832031 47.339844 151.757812 45.769531 152.757812 C 44.203125 153.757812 42.683594 154.828125 41.214844 155.96875 C 39.742188 157.109375 38.328125 158.316406 36.96875 159.585938 C 35.613281 160.855469 34.3125 162.1875 33.078125 163.578125 C 31.839844 164.964844 30.667969 166.410156 29.566406 167.90625 C 28.460938 169.40625 27.429688 170.949219 26.464844 172.542969 C 25.503906 174.136719 24.617188 175.769531 23.804688 177.441406 C 22.992188 179.117188 22.261719 180.824219 21.605469 182.566406 C 20.949219 184.308594 20.378906 186.074219 19.886719 187.871094 C 19.394531 189.664062 18.984375 191.476562 18.65625 193.308594 C 18.332031 195.140625 18.089844 196.984375 17.933594 198.839844 C 17.777344 200.691406 17.707031 202.550781 17.722656 204.410156 C 17.738281 206.269531 17.835938 208.128906 18.023438 209.980469 C 18.207031 211.832031 18.476562 213.667969 18.832031 215.496094 C 19.183594 217.324219 19.621094 219.128906 20.140625 220.914062 C 20.664062 222.703125 21.261719 224.460938 21.945312 226.191406 C 22.628906 227.921875 23.386719 229.621094 24.226562 231.28125 C 25.0625 232.941406 25.976562 234.5625 26.960938 236.136719 C 27.949219 237.714844 29.003906 239.246094 30.132812 240.726562 C 31.257812 242.207031 32.453125 243.628906 33.710938 245 C 34.96875 246.371094 36.289062 247.679688 37.664062 248.929688 C 39.042969 250.179688 40.476562 251.363281 41.964844 252.480469 C 43.453125 253.597656 44.988281 254.644531 46.570312 255.621094 C 48.15625 256.597656 49.78125 257.5 51.445312 258.324219 C 53.113281 259.152344 54.8125 259.898438 56.550781 260.570312 C 58.285156 261.242188 60.046875 261.832031 61.835938 262.339844 C 63.625 262.847656 65.433594 263.273438 67.265625 263.613281 C 69.09375 263.957031 70.933594 264.210938 72.785156 264.386719 C 74.636719 264.558594 76.492188 264.644531 78.351562 264.648438 L 296.847656 264.648438 C 298.746094 264.652344 300.636719 264.570312 302.523438 264.394531 C 304.410156 264.222656 306.285156 263.964844 308.148438 263.613281 C 310.011719 263.265625 311.855469 262.832031 313.675781 262.308594 C 315.5 261.789062 317.292969 261.183594 319.058594 260.492188 C 320.824219 259.800781 322.550781 259.03125 324.246094 258.179688 C 325.9375 257.324219 327.585938 256.394531 329.191406 255.390625 C 330.800781 254.382812 332.355469 253.300781 333.859375 252.148438 C 335.363281 250.996094 336.808594 249.773438 338.199219 248.484375 C 339.589844 247.195312 340.914062 245.84375 342.175781 244.429688 C 343.441406 243.015625 344.632812 241.546875 345.757812 240.019531 C 346.882812 238.492188 347.933594 236.917969 348.910156 235.292969 C 349.886719 233.667969 350.785156 232 351.605469 230.292969 C 352.425781 228.582031 353.164062 226.839844 353.820312 225.0625 C 354.476562 223.28125 355.050781 221.476562 355.535156 219.644531 C 356.023438 217.8125 356.421875 215.960938 356.738281 214.09375 C 357.050781 212.222656 357.273438 210.34375 357.410156 208.453125 C 357.546875 206.5625 357.597656 204.667969 357.554688 202.773438 C 357.515625 200.875 357.386719 198.988281 357.167969 197.105469 C 356.949219 195.222656 356.644531 193.351562 356.25 191.496094 C 355.855469 189.644531 355.375 187.8125 354.808594 186.003906 C 354.242188 184.191406 353.59375 182.414062 352.863281 180.664062 C 352.128906 178.917969 351.316406 177.207031 350.421875 175.535156 C 349.53125 173.863281 348.558594 172.234375 347.515625 170.65625 C 346.46875 169.074219 345.351562 167.546875 344.160156 166.070312 C 342.972656 164.59375 341.714844 163.175781 340.394531 161.820312 C 339.070312 160.460938 337.6875 159.167969 336.242188 157.9375 C 334.800781 156.710938 333.300781 155.554688 331.75 154.464844 C 330.195312 153.378906 328.597656 152.367188 326.949219 151.429688 C 325.300781 150.492188 323.613281 149.632812 321.882812 148.855469 C 320.15625 148.078125 318.394531 147.382812 316.601562 146.769531 C 314.808594 146.15625 312.992188 145.628906 311.148438 145.183594 C 309.304688 144.742188 307.445312 144.386719 305.570312 144.121094 Z M 305.570312 144.121094 "/>
<path style=" stroke:none;fill-rule:nonzero;fill:rgb(14.118958%,9.408569%,37.649536%);fill-opacity:1;" d="M 296.847656 276.789062 L 78.351562 276.789062 C 76.222656 276.785156 74.097656 276.6875 71.976562 276.5 C 69.855469 276.308594 67.746094 276.027344 65.652344 275.652344 C 63.554688 275.277344 61.476562 274.8125 59.421875 274.257812 C 57.367188 273.699219 55.339844 273.054688 53.339844 272.320312 C 51.34375 271.585938 49.378906 270.761719 47.453125 269.855469 C 45.523438 268.949219 43.640625 267.960938 41.800781 266.886719 C 39.960938 265.816406 38.171875 264.664062 36.433594 263.4375 C 34.691406 262.207031 33.011719 260.902344 31.386719 259.527344 C 29.761719 258.152344 28.199219 256.707031 26.699219 255.191406 C 25.203125 253.679688 23.773438 252.101562 22.414062 250.460938 C 21.054688 248.824219 19.765625 247.128906 18.554688 245.375 C 17.34375 243.625 16.210938 241.820312 15.160156 239.96875 C 14.105469 238.117188 13.136719 236.226562 12.25 234.289062 C 11.359375 232.351562 10.558594 230.378906 9.847656 228.375 C 9.132812 226.367188 8.507812 224.332031 7.972656 222.269531 C 7.433594 220.210938 6.988281 218.128906 6.636719 216.027344 C 6.285156 213.925781 6.023438 211.816406 5.855469 209.691406 C 5.6875 207.566406 5.609375 205.441406 5.628906 203.3125 C 5.648438 201.179688 5.757812 199.054688 5.964844 196.9375 C 6.167969 194.816406 6.464844 192.707031 6.855469 190.613281 C 7.246094 188.519531 7.726562 186.445312 8.296875 184.394531 C 8.867188 182.34375 9.527344 180.320312 10.277344 178.324219 C 11.027344 176.332031 11.859375 174.375 12.78125 172.453125 C 13.699219 170.53125 14.703125 168.65625 15.789062 166.820312 C 16.875 164.988281 18.035156 163.207031 19.277344 161.476562 C 20.519531 159.746094 21.832031 158.070312 23.222656 156.457031 C 24.609375 154.839844 26.066406 153.289062 27.589844 151.800781 C 29.113281 150.3125 30.699219 148.894531 32.347656 147.546875 C 33.996094 146.199219 35.703125 144.925781 37.460938 143.726562 C 39.222656 142.527344 41.03125 141.40625 42.890625 140.367188 C 44.75 139.328125 46.648438 138.371094 48.589844 137.496094 C 50.53125 136.621094 52.511719 135.835938 54.519531 135.136719 C 54.730469 133.21875 55.015625 131.3125 55.378906 129.417969 C 55.738281 127.523438 56.175781 125.644531 56.6875 123.785156 C 57.199219 121.925781 57.785156 120.089844 58.445312 118.277344 C 59.105469 116.464844 59.835938 114.683594 60.636719 112.929688 C 61.441406 111.175781 62.3125 109.457031 63.25 107.773438 C 64.191406 106.089844 65.195312 104.445312 66.269531 102.839844 C 67.339844 101.238281 68.472656 99.679688 69.671875 98.167969 C 70.867188 96.65625 72.121094 95.191406 73.433594 93.78125 C 74.75 92.367188 76.117188 91.011719 77.539062 89.707031 C 78.960938 88.40625 80.433594 87.164062 81.953125 85.980469 C 83.476562 84.792969 85.042969 83.671875 86.65625 82.613281 C 88.265625 81.554688 89.917969 80.5625 91.609375 79.636719 C 93.300781 78.710938 95.027344 77.851562 96.785156 77.066406 C 98.546875 76.277344 100.335938 75.5625 102.152344 74.914062 C 103.96875 74.269531 105.808594 73.699219 107.671875 73.203125 C 109.535156 72.707031 111.414062 72.285156 113.3125 71.9375 C 114.636719 69.167969 116.074219 66.460938 117.625 63.8125 C 119.175781 61.164062 120.835938 58.585938 122.605469 56.078125 C 124.375 53.570312 126.242188 51.140625 128.21875 48.792969 C 130.191406 46.441406 132.257812 44.179688 134.421875 42.003906 C 136.585938 39.828125 138.835938 37.746094 141.175781 35.757812 C 143.515625 33.773438 145.933594 31.890625 148.433594 30.105469 C 150.929688 28.324219 153.5 26.648438 156.136719 25.082031 C 158.777344 23.519531 161.476562 22.066406 164.238281 20.726562 C 167 19.390625 169.8125 18.167969 172.675781 17.066406 C 175.539062 15.964844 178.445312 14.988281 181.390625 14.132812 C 184.335938 13.273438 187.3125 12.542969 190.320312 11.9375 C 193.328125 11.332031 196.359375 10.855469 199.40625 10.503906 C 202.453125 10.152344 205.511719 9.933594 208.578125 9.839844 C 211.644531 9.746094 214.710938 9.785156 217.773438 9.949219 C 220.839844 10.113281 223.890625 10.410156 226.929688 10.832031 C 229.96875 11.253906 232.984375 11.804688 235.976562 12.480469 C 238.96875 13.15625 241.929688 13.960938 244.851562 14.886719 C 247.777344 15.8125 250.660156 16.859375 253.496094 18.03125 C 256.332031 19.199219 259.117188 20.484375 261.84375 21.886719 C 264.574219 23.292969 267.238281 24.808594 269.839844 26.4375 C 272.4375 28.066406 274.96875 29.800781 277.421875 31.640625 C 279.875 33.480469 282.25 35.421875 284.539062 37.464844 C 286.832031 39.503906 289.035156 41.640625 291.144531 43.867188 C 293.257812 46.09375 295.269531 48.40625 297.1875 50.800781 C 299.105469 53.199219 300.917969 55.671875 302.625 58.21875 C 304.332031 60.769531 305.929688 63.386719 307.417969 66.070312 C 308.90625 68.753906 310.28125 71.496094 311.535156 74.296875 C 312.792969 77.09375 313.929688 79.941406 314.949219 82.839844 C 315.964844 85.734375 316.859375 88.667969 317.628906 91.636719 C 318.398438 94.609375 319.042969 97.605469 319.5625 100.632812 C 320.078125 103.65625 320.46875 106.699219 320.730469 109.757812 C 320.992188 112.8125 321.121094 115.878906 321.125 118.945312 C 321.117188 124.375 320.699219 129.769531 319.871094 135.136719 C 321.898438 135.808594 323.894531 136.574219 325.851562 137.425781 C 327.8125 138.277344 329.730469 139.210938 331.609375 140.234375 C 333.488281 141.253906 335.316406 142.355469 337.097656 143.535156 C 338.875 144.71875 340.601562 145.976562 342.269531 147.308594 C 343.941406 148.644531 345.546875 150.050781 347.09375 151.523438 C 348.640625 153 350.117188 154.542969 351.527344 156.148438 C 352.9375 157.753906 354.273438 159.421875 355.535156 161.144531 C 356.796875 162.867188 357.980469 164.644531 359.089844 166.472656 C 360.195312 168.300781 361.21875 170.175781 362.160156 172.09375 C 363.097656 174.015625 363.953125 175.972656 364.722656 177.964844 C 365.492188 179.960938 366.167969 181.984375 366.757812 184.039062 C 367.347656 186.09375 367.847656 188.167969 368.253906 190.269531 C 368.660156 192.367188 368.972656 194.476562 369.195312 196.605469 C 369.414062 198.730469 369.539062 200.863281 369.574219 203 C 369.605469 205.136719 369.542969 207.269531 369.386719 209.402344 C 369.230469 211.535156 368.984375 213.65625 368.640625 215.765625 C 368.296875 217.875 367.863281 219.964844 367.335938 222.035156 C 366.808594 224.105469 366.191406 226.152344 365.484375 228.167969 C 364.773438 230.183594 363.980469 232.164062 363.097656 234.113281 C 362.214844 236.058594 361.25 237.964844 360.199219 239.824219 C 359.148438 241.6875 358.019531 243.496094 356.808594 245.257812 C 355.597656 247.019531 354.3125 248.726562 352.953125 250.375 C 351.59375 252.023438 350.164062 253.609375 348.664062 255.128906 C 347.164062 256.652344 345.597656 258.105469 343.96875 259.488281 C 342.34375 260.875 340.65625 262.183594 338.914062 263.417969 C 337.167969 264.652344 335.375 265.808594 333.527344 266.886719 C 331.683594 267.964844 329.792969 268.957031 327.859375 269.867188 C 325.925781 270.777344 323.957031 271.601562 321.949219 272.335938 C 319.945312 273.074219 317.910156 273.71875 315.847656 274.277344 C 313.785156 274.835938 311.699219 275.300781 309.597656 275.671875 C 307.492188 276.046875 305.375 276.324219 303.246094 276.511719 C 301.117188 276.699219 298.984375 276.789062 296.847656 276.789062 Z M 78.351562 143.066406 C 78.425781 143.40625 78.460938 143.75 78.453125 144.101562 C 78.476562 144.808594 78.433594 145.515625 78.332031 146.21875 C 78.230469 146.921875 78.066406 147.609375 77.84375 148.285156 C 77.621094 148.957031 77.339844 149.605469 77.003906 150.230469 C 76.667969 150.855469 76.277344 151.449219 75.835938 152.003906 C 75.394531 152.5625 74.910156 153.074219 74.378906 153.546875 C 73.847656 154.019531 73.28125 154.4375 72.675781 154.8125 C 72.070312 155.183594 71.4375 155.5 70.777344 155.757812 C 70.117188 156.019531 69.4375 156.222656 68.742188 156.363281 C 67.289062 156.660156 65.847656 157.027344 64.425781 157.457031 C 63.003906 157.886719 61.605469 158.382812 60.226562 158.941406 C 58.851562 159.503906 57.503906 160.125 56.183594 160.808594 C 54.863281 161.492188 53.578125 162.234375 52.328125 163.035156 C 51.074219 163.835938 49.863281 164.691406 48.691406 165.605469 C 47.515625 166.519531 46.386719 167.484375 45.304688 168.5 C 44.21875 169.515625 43.183594 170.578125 42.195312 171.691406 C 41.210938 172.800781 40.277344 173.957031 39.394531 175.152344 C 38.515625 176.351562 37.691406 177.585938 36.925781 178.859375 C 36.15625 180.132812 35.449219 181.4375 34.800781 182.777344 C 34.152344 184.113281 33.570312 185.476562 33.046875 186.871094 C 32.523438 188.261719 32.066406 189.675781 31.675781 191.109375 C 31.28125 192.542969 30.957031 193.988281 30.695312 195.453125 C 30.4375 196.917969 30.246094 198.390625 30.121094 199.871094 C 29.996094 201.351562 29.9375 202.835938 29.949219 204.320312 C 29.960938 205.808594 30.042969 207.289062 30.191406 208.769531 C 30.339844 210.25 30.554688 211.71875 30.835938 213.175781 C 31.117188 214.636719 31.46875 216.078125 31.882812 217.507812 C 32.296875 218.933594 32.777344 220.339844 33.320312 221.722656 C 33.867188 223.105469 34.472656 224.460938 35.140625 225.789062 C 35.808594 227.117188 36.539062 228.410156 37.324219 229.671875 C 38.113281 230.933594 38.957031 232.152344 39.855469 233.335938 C 40.753906 234.519531 41.707031 235.660156 42.710938 236.753906 C 43.714844 237.851562 44.765625 238.898438 45.867188 239.898438 C 46.96875 240.898438 48.113281 241.84375 49.296875 242.738281 C 50.484375 243.632812 51.710938 244.46875 52.976562 245.25 C 54.238281 246.03125 55.535156 246.753906 56.867188 247.417969 C 58.199219 248.078125 59.554688 248.679688 60.941406 249.214844 C 62.328125 249.753906 63.734375 250.226562 65.164062 250.636719 C 66.589844 251.042969 68.035156 251.386719 69.496094 251.660156 C 70.957031 251.9375 72.425781 252.144531 73.90625 252.285156 C 75.382812 252.425781 76.867188 252.5 78.351562 252.503906 L 296.847656 252.503906 C 298.363281 252.507812 299.875 252.441406 301.386719 252.304688 C 302.894531 252.164062 304.394531 251.957031 305.882812 251.675781 C 307.371094 251.398438 308.84375 251.050781 310.300781 250.632812 C 311.757812 250.214844 313.191406 249.730469 314.601562 249.179688 C 316.015625 248.625 317.394531 248.011719 318.75 247.328125 C 320.101562 246.644531 321.421875 245.902344 322.703125 245.097656 C 323.988281 244.292969 325.230469 243.425781 326.433594 242.503906 C 327.636719 241.582031 328.792969 240.605469 329.902344 239.574219 C 331.011719 238.542969 332.074219 237.464844 333.082031 236.332031 C 334.089844 235.203125 335.046875 234.027344 335.945312 232.808594 C 336.84375 231.585938 337.683594 230.328125 338.464844 229.027344 C 339.242188 227.730469 339.960938 226.398438 340.617188 225.03125 C 341.273438 223.664062 341.863281 222.269531 342.386719 220.847656 C 342.914062 219.425781 343.371094 217.984375 343.757812 216.519531 C 344.148438 215.054688 344.46875 213.574219 344.71875 212.078125 C 344.96875 210.582031 345.148438 209.082031 345.257812 207.570312 C 345.367188 206.058594 345.402344 204.542969 345.371094 203.027344 C 345.339844 201.511719 345.234375 200.003906 345.058594 198.496094 C 344.886719 196.992188 344.640625 195.5 344.324219 194.015625 C 344.011719 192.53125 343.628906 191.070312 343.175781 189.621094 C 342.722656 188.175781 342.203125 186.753906 341.617188 185.355469 C 341.03125 183.957031 340.382812 182.589844 339.667969 181.253906 C 338.953125 179.917969 338.179688 178.617188 337.339844 177.355469 C 336.503906 176.089844 335.613281 174.867188 334.660156 173.6875 C 333.710938 172.507812 332.707031 171.375 331.648438 170.289062 C 330.589844 169.203125 329.484375 168.171875 328.332031 167.1875 C 327.175781 166.207031 325.980469 165.28125 324.738281 164.410156 C 323.496094 163.542969 322.21875 162.734375 320.898438 161.984375 C 319.582031 161.234375 318.234375 160.550781 316.851562 159.925781 C 315.46875 159.304688 314.0625 158.75 312.628906 158.257812 C 311.195312 157.769531 309.742188 157.347656 308.269531 156.992188 C 306.796875 156.636719 305.308594 156.355469 303.808594 156.140625 C 303.386719 156.078125 302.96875 155.992188 302.554688 155.886719 C 302.140625 155.78125 301.734375 155.652344 301.335938 155.503906 C 300.933594 155.355469 300.542969 155.183594 300.160156 154.992188 C 299.78125 154.804688 299.410156 154.59375 299.050781 154.363281 C 298.6875 154.132812 298.34375 153.886719 298.007812 153.621094 C 297.675781 153.351562 297.355469 153.070312 297.050781 152.769531 C 296.75 152.46875 296.460938 152.15625 296.191406 151.824219 C 295.921875 151.496094 295.667969 151.152344 295.433594 150.792969 C 295.199219 150.4375 294.984375 150.070312 294.789062 149.691406 C 294.59375 149.308594 294.417969 148.921875 294.261719 148.523438 C 294.109375 148.125 293.976562 147.71875 293.863281 147.308594 C 293.753906 146.894531 293.664062 146.480469 293.59375 146.058594 C 293.527344 145.636719 293.480469 145.210938 293.457031 144.785156 C 293.433594 144.359375 293.433594 143.933594 293.457031 143.507812 C 293.476562 143.082031 293.523438 142.65625 293.589844 142.234375 C 293.65625 141.8125 293.742188 141.394531 293.855469 140.984375 C 294.28125 139.417969 294.664062 137.839844 295.003906 136.25 C 295.339844 134.660156 295.632812 133.0625 295.875 131.457031 C 296.121094 129.847656 296.320312 128.238281 296.472656 126.621094 C 296.625 125.003906 296.730469 123.382812 296.792969 121.757812 C 296.851562 120.132812 296.863281 118.511719 296.828125 116.886719 C 296.796875 115.261719 296.714844 113.640625 296.585938 112.019531 C 296.460938 110.402344 296.285156 108.785156 296.066406 107.175781 C 295.84375 105.566406 295.578125 103.964844 295.265625 102.371094 C 294.953125 100.777344 294.597656 99.191406 294.191406 97.617188 C 293.789062 96.042969 293.339844 94.484375 292.847656 92.933594 C 292.355469 91.386719 291.816406 89.855469 291.234375 88.335938 C 290.652344 86.820312 290.027344 85.320312 289.359375 83.839844 C 288.695312 82.359375 287.984375 80.898438 287.230469 79.457031 C 286.480469 78.019531 285.6875 76.601562 284.855469 75.207031 C 284.019531 73.8125 283.148438 72.441406 282.238281 71.097656 C 281.324219 69.753906 280.375 68.4375 279.386719 67.144531 C 278.398438 65.855469 277.375 64.597656 276.3125 63.367188 C 275.253906 62.136719 274.160156 60.9375 273.03125 59.769531 C 271.902344 58.601562 270.738281 57.464844 269.542969 56.363281 C 268.347656 55.265625 267.125 54.199219 265.867188 53.167969 C 264.613281 52.136719 263.328125 51.144531 262.015625 50.1875 C 260.703125 49.230469 259.363281 48.3125 257.996094 47.433594 C 256.632812 46.554688 255.242188 45.714844 253.828125 44.914062 C 252.414062 44.117188 250.976562 43.359375 249.519531 42.640625 C 248.0625 41.925781 246.585938 41.25 245.085938 40.617188 C 243.589844 39.988281 242.078125 39.398438 240.546875 38.855469 C 239.015625 38.308594 237.472656 37.808594 235.914062 37.355469 C 234.355469 36.898438 232.785156 36.488281 231.199219 36.121094 C 229.617188 35.757812 228.027344 35.4375 226.425781 35.164062 C 224.824219 34.890625 223.214844 34.664062 221.601562 34.480469 C 219.988281 34.300781 218.371094 34.167969 216.746094 34.078125 C 215.125 33.992188 213.503906 33.949219 211.878906 33.953125 C 209.765625 33.949219 207.65625 34.023438 205.550781 34.175781 C 203.445312 34.328125 201.347656 34.558594 199.257812 34.867188 C 197.167969 35.175781 195.09375 35.5625 193.035156 36.027344 C 190.972656 36.492188 188.933594 37.035156 186.914062 37.652344 C 184.894531 38.269531 182.902344 38.964844 180.933594 39.730469 C 178.964844 40.5 177.03125 41.339844 175.125 42.25 C 173.21875 43.164062 171.351562 44.144531 169.519531 45.199219 C 167.691406 46.25 165.902344 47.371094 164.152344 48.558594 C 162.40625 49.742188 160.707031 50.992188 159.050781 52.308594 C 157.398438 53.621094 155.796875 54.996094 154.246094 56.429688 C 152.695312 57.863281 151.199219 59.355469 149.761719 60.902344 C 148.324219 62.449219 146.941406 64.046875 145.625 65.695312 C 144.304688 67.34375 143.050781 69.042969 141.855469 70.785156 C 140.664062 72.527344 139.539062 74.316406 138.480469 76.144531 C 137.421875 77.972656 136.433594 79.835938 135.515625 81.738281 C 134.597656 83.640625 133.75 85.574219 132.976562 87.539062 C 132.558594 88.585938 132.007812 89.550781 131.320312 90.445312 C 130.632812 91.335938 129.839844 92.117188 128.933594 92.785156 C 128.03125 93.457031 127.050781 93.988281 126 94.386719 C 124.949219 94.785156 123.859375 95.03125 122.742188 95.128906 C 121.246094 95.246094 119.757812 95.429688 118.277344 95.6875 C 116.800781 95.941406 115.335938 96.265625 113.890625 96.660156 C 112.441406 97.050781 111.015625 97.511719 109.609375 98.039062 C 108.207031 98.5625 106.828125 99.15625 105.476562 99.808594 C 104.128906 100.464844 102.8125 101.179688 101.527344 101.957031 C 100.246094 102.738281 99.003906 103.574219 97.796875 104.46875 C 96.59375 105.363281 95.433594 106.3125 94.316406 107.3125 C 93.199219 108.316406 92.132812 109.371094 91.117188 110.472656 C 90.097656 111.574219 89.132812 112.722656 88.222656 113.914062 C 87.3125 115.109375 86.460938 116.339844 85.667969 117.613281 C 84.871094 118.886719 84.136719 120.191406 83.464844 121.535156 C 82.792969 122.875 82.183594 124.246094 81.636719 125.644531 C 81.09375 127.042969 80.613281 128.460938 80.203125 129.90625 C 79.792969 131.347656 79.449219 132.808594 79.171875 134.28125 C 78.894531 135.757812 78.691406 137.242188 78.554688 138.738281 C 78.417969 140.230469 78.351562 141.730469 78.351562 143.230469 C 78.34375 143.175781 78.34375 143.121094 78.351562 143.066406 Z M 78.351562 143.066406 "/>
<g clip-path="url(#clip1)" clip-rule="nonzero">
<path style=" stroke:none;fill-rule:nonzero;fill:rgb(14.118958%,9.408569%,37.649536%);fill-opacity:1;" d="M 187.601562 373.921875 C 185.992188 373.921875 184.445312 373.609375 182.957031 372.996094 C 181.472656 372.378906 180.160156 371.5 179.023438 370.359375 L 142.605469 333.933594 C 142.078125 333.363281 141.605469 332.75 141.191406 332.089844 C 140.777344 331.425781 140.433594 330.734375 140.15625 330.007812 C 139.875 329.277344 139.667969 328.53125 139.535156 327.761719 C 139.398438 326.996094 139.335938 326.222656 139.351562 325.445312 C 139.363281 324.664062 139.453125 323.894531 139.613281 323.132812 C 139.777344 322.371094 140.011719 321.628906 140.316406 320.914062 C 140.617188 320.195312 140.988281 319.515625 141.425781 318.867188 C 141.859375 318.222656 142.355469 317.625 142.90625 317.074219 C 143.457031 316.519531 144.054688 316.027344 144.699219 315.59375 C 145.34375 315.15625 146.027344 314.785156 146.742188 314.480469 C 147.460938 314.175781 148.199219 313.945312 148.960938 313.78125 C 149.722656 313.621094 150.496094 313.53125 151.273438 313.519531 C 152.054688 313.503906 152.824219 313.566406 153.59375 313.699219 C 154.359375 313.835938 155.109375 314.042969 155.835938 314.320312 C 156.5625 314.601562 157.257812 314.945312 157.917969 315.359375 C 158.578125 315.773438 159.191406 316.242188 159.761719 316.773438 L 187.601562 344.621094 L 215.4375 316.773438 C 216.007812 316.242188 216.625 315.773438 217.285156 315.359375 C 217.945312 314.945312 218.640625 314.601562 219.367188 314.320312 C 220.09375 314.042969 220.84375 313.835938 221.609375 313.699219 C 222.375 313.566406 223.148438 313.503906 223.929688 313.519531 C 224.707031 313.53125 225.476562 313.621094 226.238281 313.78125 C 227 313.945312 227.742188 314.175781 228.457031 314.480469 C 229.175781 314.785156 229.855469 315.15625 230.503906 315.59375 C 231.148438 316.027344 231.746094 316.519531 232.296875 317.074219 C 232.847656 317.625 233.34375 318.222656 233.777344 318.867188 C 234.214844 319.515625 234.582031 320.195312 234.886719 320.914062 C 235.191406 321.628906 235.425781 322.371094 235.585938 323.132812 C 235.75 323.894531 235.835938 324.664062 235.851562 325.445312 C 235.863281 326.222656 235.804688 326.996094 235.667969 327.761719 C 235.535156 328.53125 235.328125 329.277344 235.046875 330.007812 C 234.769531 330.734375 234.421875 331.429688 234.011719 332.089844 C 233.597656 332.75 233.125 333.363281 232.59375 333.933594 L 196.179688 370.359375 C 195.042969 371.5 193.730469 372.378906 192.246094 372.996094 C 190.757812 373.609375 189.210938 373.921875 187.601562 373.921875 Z M 187.601562 373.921875 "/>
</g>
<g clip-path="url(#clip2)" clip-rule="nonzero">
<path style=" stroke:none;fill-rule:nonzero;fill:rgb(14.118958%,9.408569%,37.649536%);fill-opacity:1;" d="M 187.601562 373.921875 C 186.804688 373.921875 186.015625 373.84375 185.234375 373.6875 C 184.453125 373.53125 183.691406 373.304688 182.957031 372.996094 C 182.21875 372.691406 181.519531 372.320312 180.855469 371.875 C 180.195312 371.433594 179.582031 370.929688 179.019531 370.367188 C 178.453125 369.800781 177.949219 369.1875 177.507812 368.527344 C 177.066406 367.863281 176.691406 367.164062 176.386719 366.425781 C 176.082031 365.691406 175.851562 364.929688 175.695312 364.148438 C 175.539062 363.367188 175.460938 362.578125 175.460938 361.78125 L 175.460938 191.796875 C 175.460938 191 175.539062 190.210938 175.695312 189.425781 C 175.851562 188.644531 176.082031 187.886719 176.386719 187.148438 C 176.691406 186.414062 177.066406 185.714844 177.507812 185.050781 C 177.949219 184.386719 178.453125 183.773438 179.019531 183.210938 C 179.582031 182.648438 180.195312 182.144531 180.855469 181.699219 C 181.519531 181.257812 182.21875 180.882812 182.957031 180.578125 C 183.691406 180.273438 184.453125 180.042969 185.234375 179.886719 C 186.015625 179.734375 186.804688 179.65625 187.601562 179.65625 C 188.398438 179.65625 189.1875 179.734375 189.96875 179.886719 C 190.75 180.042969 191.511719 180.273438 192.246094 180.578125 C 192.984375 180.882812 193.683594 181.257812 194.34375 181.699219 C 195.007812 182.144531 195.621094 182.648438 196.183594 183.210938 C 196.746094 183.773438 197.25 184.386719 197.695312 185.050781 C 198.136719 185.714844 198.511719 186.414062 198.816406 187.148438 C 199.121094 187.886719 199.351562 188.644531 199.507812 189.425781 C 199.660156 190.210938 199.738281 191 199.738281 191.796875 L 199.738281 361.78125 C 199.738281 362.578125 199.660156 363.367188 199.507812 364.148438 C 199.351562 364.929688 199.121094 365.691406 198.816406 366.425781 C 198.511719 367.164062 198.136719 367.863281 197.695312 368.527344 C 197.25 369.1875 196.746094 369.800781 196.183594 370.367188 C 195.621094 370.929688 195.007812 371.433594 194.34375 371.875 C 193.683594 372.320312 192.984375 372.691406 192.246094 372.996094 C 191.511719 373.304688 190.75 373.53125 189.96875 373.6875 C 189.1875 373.84375 188.398438 373.921875 187.601562 373.921875 Z M 187.601562 373.921875 "/>
</g>
</g>
</svg>
