<svg width="39" height="35" viewBox="0 0 39 35" fill="none" xmlns="http://www.w3.org/2000/svg">
<rect width="39" height="35" fill="#E5E5E5"/>
<g clip-path="url(#clip0)">
<rect width="1440" height="1024" transform="translate(-88 -304)" fill="#100F15"/>
<g filter="url(#filter0_d)">
<rect x="-47.4507" y="-81.5279" width="1367.9" height="734.48" rx="12" fill="white"/>
<rect x="-45.9507" y="-80.0279" width="1364.9" height="731.48" rx="10.5" stroke="#6E6E6E" stroke-width="3"/>
</g>
<g filter="url(#filter1_d)">
<rect x="-11.7386" y="-17.9797" width="1256.98" height="69" rx="20" fill="white"/>
</g>
<g filter="url(#filter2_d)">
<path d="M56.1872 39.02C56.1872 37.8351 56.308 36.8826 56.5495 36.1626C56.7956 35.438 57.1579 34.8797 57.6364 34.4878C58.1195 34.0959 58.7256 33.8999 59.4548 33.8999C59.9925 33.8999 60.4642 34.0093 60.8698 34.228C61.2754 34.4422 61.6104 34.7544 61.8747 35.1646C62.139 35.5701 62.3464 36.0669 62.4968 36.6548C62.6472 37.2381 62.7224 38.0265 62.7224 39.02C62.7224 40.1958 62.6016 41.146 62.36 41.8706C62.1185 42.5907 61.7562 43.1489 61.2731 43.5454C60.7946 43.9373 60.1885 44.1333 59.4548 44.1333C58.4886 44.1333 57.7298 43.7869 57.1784 43.0942C56.5176 42.2603 56.1872 40.9022 56.1872 39.02ZM57.4518 39.02C57.4518 40.6652 57.6432 41.7612 58.0261 42.3081C58.4134 42.8504 58.8897 43.1216 59.4548 43.1216C60.0199 43.1216 60.4938 42.8481 60.8766 42.3013C61.264 41.7544 61.4577 40.6606 61.4577 39.02C61.4577 37.3703 61.264 36.2743 60.8766 35.7319C60.4938 35.1896 60.0153 34.9185 59.4411 34.9185C58.876 34.9185 58.4248 35.1577 58.0876 35.6362C57.6638 36.2469 57.4518 37.3748 57.4518 39.02ZM70.282 42.7798V43.9624H63.6579C63.6488 43.6662 63.6967 43.3813 63.8015 43.1079C63.9701 42.6567 64.239 42.2124 64.6081 41.7749C64.9818 41.3374 65.5196 40.8315 66.2214 40.2573C67.3106 39.3641 68.0466 38.6577 68.4294 38.1382C68.8122 37.6141 69.0036 37.1196 69.0036 36.6548C69.0036 36.1672 68.8282 35.757 68.4773 35.4243C68.1309 35.0871 67.6775 34.9185 67.1169 34.9185C66.5245 34.9185 66.0505 35.0962 65.695 35.4517C65.3396 35.8071 65.1596 36.2993 65.155 36.9282L63.8904 36.7983C63.9769 35.855 64.3028 35.1372 64.8679 34.645C65.433 34.1483 66.1918 33.8999 67.1443 33.8999C68.1059 33.8999 68.8669 34.1665 69.4275 34.6997C69.988 35.2329 70.2683 35.8937 70.2683 36.6821C70.2683 37.0832 70.1863 37.4774 70.0222 37.8647C69.8581 38.2521 69.5847 38.66 69.2019 39.0884C68.8236 39.5168 68.1924 40.1047 67.3083 40.8521C66.57 41.4718 66.0961 41.8934 65.8865 42.1167C65.6768 42.3354 65.5036 42.5565 65.3669 42.7798H70.282ZM70.8621 44.1333L73.7674 33.77H74.7517L71.8533 44.1333H70.8621ZM75.1746 39.02C75.1746 37.8351 75.2954 36.8826 75.5369 36.1626C75.783 35.438 76.1453 34.8797 76.6238 34.4878C77.1069 34.0959 77.713 33.8999 78.4422 33.8999C78.98 33.8999 79.4516 34.0093 79.8572 34.228C80.2628 34.4422 80.5978 34.7544 80.8621 35.1646C81.1264 35.5701 81.3338 36.0669 81.4842 36.6548C81.6346 37.2381 81.7098 38.0265 81.7098 39.02C81.7098 40.1958 81.589 41.146 81.3475 41.8706C81.1059 42.5907 80.7436 43.1489 80.2606 43.5454C79.782 43.9373 79.1759 44.1333 78.4422 44.1333C77.476 44.1333 76.7173 43.7869 76.1658 43.0942C75.505 42.2603 75.1746 40.9022 75.1746 39.02ZM76.4393 39.02C76.4393 40.6652 76.6307 41.7612 77.0135 42.3081C77.4009 42.8504 77.8771 43.1216 78.4422 43.1216C79.0073 43.1216 79.4813 42.8481 79.8641 42.3013C80.2514 41.7544 80.4451 40.6606 80.4451 39.02C80.4451 37.3703 80.2514 36.2743 79.8641 35.7319C79.4813 35.1896 79.0027 34.9185 78.4285 34.9185C77.8634 34.9185 77.4122 35.1577 77.075 35.6362C76.6512 36.2469 76.4393 37.3748 76.4393 39.02ZM89.2694 42.7798V43.9624H82.6454C82.6362 43.6662 82.6841 43.3813 82.7889 43.1079C82.9575 42.6567 83.2264 42.2124 83.5956 41.7749C83.9693 41.3374 84.507 40.8315 85.2088 40.2573C86.298 39.3641 87.034 38.6577 87.4168 38.1382C87.7997 37.6141 87.9911 37.1196 87.9911 36.6548C87.9911 36.1672 87.8156 35.757 87.4647 35.4243C87.1183 35.0871 86.6649 34.9185 86.1043 34.9185C85.5119 34.9185 85.0379 35.0962 84.6825 35.4517C84.327 35.8071 84.147 36.2993 84.1424 36.9282L82.8778 36.7983C82.9644 35.855 83.2902 35.1372 83.8553 34.645C84.4204 34.1483 85.1792 33.8999 86.1317 33.8999C87.0933 33.8999 87.8543 34.1665 88.4149 34.6997C88.9754 35.2329 89.2557 35.8937 89.2557 36.6821C89.2557 37.0832 89.1737 37.4774 89.0096 37.8647C88.8456 38.2521 88.5721 38.66 88.1893 39.0884C87.811 39.5168 87.1799 40.1047 86.2957 40.8521C85.5575 41.4718 85.0835 41.8934 84.8739 42.1167C84.6642 42.3354 84.4911 42.5565 84.3543 42.7798H89.2694ZM89.8495 44.1333L92.7548 33.77H93.7391L90.8407 44.1333H89.8495ZM100.629 42.7798V43.9624H94.0048C93.9957 43.6662 94.0435 43.3813 94.1484 43.1079C94.317 42.6567 94.5859 42.2124 94.955 41.7749C95.3287 41.3374 95.8665 40.8315 96.5683 40.2573C97.6575 39.3641 98.3935 38.6577 98.7763 38.1382C99.1591 37.6141 99.3505 37.1196 99.3505 36.6548C99.3505 36.1672 99.1751 35.757 98.8241 35.4243C98.4778 35.0871 98.0243 34.9185 97.4638 34.9185C96.8713 34.9185 96.3974 35.0962 96.0419 35.4517C95.6865 35.8071 95.5064 36.2993 95.5019 36.9282L94.2372 36.7983C94.3238 35.855 94.6497 35.1372 95.2148 34.645C95.7799 34.1483 96.5387 33.8999 97.4911 33.8999C98.4527 33.8999 99.2138 34.1665 99.7743 34.6997C100.335 35.2329 100.615 35.8937 100.615 36.6821C100.615 37.0832 100.533 37.4774 100.369 37.8647C100.205 38.2521 99.9316 38.66 99.5488 39.0884C99.1705 39.5168 98.5393 40.1047 97.6552 40.8521C96.9169 41.4718 96.443 41.8934 96.2333 42.1167C96.0237 42.3354 95.8505 42.5565 95.7138 42.7798H100.629ZM101.79 39.02C101.79 37.8351 101.911 36.8826 102.152 36.1626C102.398 35.438 102.761 34.8797 103.239 34.4878C103.722 34.0959 104.328 33.8999 105.058 33.8999C105.595 33.8999 106.067 34.0093 106.473 34.228C106.878 34.4422 107.213 34.7544 107.478 35.1646C107.742 35.5701 107.949 36.0669 108.1 36.6548C108.25 37.2381 108.325 38.0265 108.325 39.02C108.325 40.1958 108.204 41.146 107.963 41.8706C107.721 42.5907 107.359 43.1489 106.876 43.5454C106.397 43.9373 105.791 44.1333 105.058 44.1333C104.091 44.1333 103.333 43.7869 102.781 43.0942C102.12 42.2603 101.79 40.9022 101.79 39.02ZM103.055 39.02C103.055 40.6652 103.246 41.7612 103.629 42.3081C104.016 42.8504 104.492 43.1216 105.058 43.1216C105.623 43.1216 106.097 42.8481 106.479 42.3013C106.867 41.7544 107.061 40.6606 107.061 39.02C107.061 37.3703 106.867 36.2743 106.479 35.7319C106.097 35.1896 105.618 34.9185 105.044 34.9185C104.479 34.9185 104.028 35.1577 103.69 35.6362C103.267 36.2469 103.055 37.3748 103.055 39.02ZM115.885 42.7798V43.9624H109.261C109.252 43.6662 109.299 43.3813 109.404 43.1079C109.573 42.6567 109.842 42.2124 110.211 41.7749C110.585 41.3374 111.122 40.8315 111.824 40.2573C112.913 39.3641 113.649 38.6577 114.032 38.1382C114.415 37.6141 114.606 37.1196 114.606 36.6548C114.606 36.1672 114.431 35.757 114.08 35.4243C113.734 35.0871 113.28 34.9185 112.72 34.9185C112.127 34.9185 111.653 35.0962 111.298 35.4517C110.942 35.8071 110.762 36.2993 110.758 36.9282L109.493 36.7983C109.58 35.855 109.906 35.1372 110.471 34.645C111.036 34.1483 111.795 33.8999 112.747 33.8999C113.709 33.8999 114.47 34.1665 115.03 34.6997C115.591 35.2329 115.871 35.8937 115.871 36.6821C115.871 37.0832 115.789 37.4774 115.625 37.8647C115.461 38.2521 115.188 38.66 114.805 39.0884C114.426 39.5168 113.795 40.1047 112.911 40.8521C112.173 41.4718 111.699 41.8934 111.489 42.1167C111.28 42.3354 111.106 42.5565 110.97 42.7798H115.885ZM121.681 43.9624H120.45V36.1216C120.154 36.4041 119.764 36.6867 119.281 36.9692C118.803 37.2518 118.372 37.4637 117.989 37.605V36.4155C118.677 36.092 119.279 35.7 119.794 35.2397C120.309 34.7795 120.674 34.3328 120.888 33.8999H121.681V43.9624Z" fill="#999999"/>
</g>
<g clip-path="url(#clip1)">
<path d="M30.5836 28.3536H10.0003C5.0514 28.3562 0.929228 24.9591 0.526222 20.5458C0.123216 16.1325 3.57439 12.1817 8.45815 11.4655C10.706 7.8996 14.9247 5.6919 19.5003 5.68685C22.3535 5.6772 25.125 6.53877 27.3568 8.12926C29.5483 9.68456 31.1063 11.8423 31.7901 14.2691C35.8813 14.8316 38.7977 18.1189 38.4813 21.8116C38.165 25.5042 34.7228 28.3556 30.5836 28.3536ZM19.5003 8.52025C16.0672 8.52388 12.902 10.1807 11.2163 12.8567L10.4753 14.0453L8.97273 14.2648C5.72734 14.7513 3.43899 17.3805 3.7069 20.315C3.97481 23.2494 6.70971 25.5115 10.0003 25.5203H30.5836C33.0672 25.5226 35.1335 23.8126 35.3245 21.597C35.5154 19.3815 33.7666 17.4083 31.312 17.0698L29.2283 16.7865L28.7185 14.9562C27.666 11.1692 23.8618 8.51312 19.5003 8.52025ZM19.5003 22.6869L13.167 17.0203H17.2045V12.7703H21.7961V17.0203H25.8336L19.5003 22.6869Z" fill="#2E3A59"/>
</g>
</g>
<defs>
<filter id="filter0_d" x="-154.451" y="-184.528" width="1581.9" height="948.48" filterUnits="userSpaceOnUse" color-interpolation-filters="sRGB">
<feFlood flood-opacity="0" result="BackgroundImageFix"/>
<feColorMatrix in="SourceAlpha" type="matrix" values="0 0 0 0 0 0 0 0 0 0 0 0 0 0 0 0 0 0 127 0"/>
<feMorphology radius="23" operator="dilate" in="SourceAlpha" result="effect1_dropShadow"/>
<feOffset dy="4"/>
<feGaussianBlur stdDeviation="42"/>
<feColorMatrix type="matrix" values="0 0 0 0 0 0 0 0 0 0 0 0 0 0 0 0 0 0 0.8 0"/>
<feBlend mode="normal" in2="BackgroundImageFix" result="effect1_dropShadow"/>
<feBlend mode="normal" in="SourceGraphic" in2="effect1_dropShadow" result="shape"/>
</filter>
<filter id="filter1_d" x="-32.7386" y="-34.9797" width="1298.98" height="111" filterUnits="userSpaceOnUse" color-interpolation-filters="sRGB">
<feFlood flood-opacity="0" result="BackgroundImageFix"/>
<feColorMatrix in="SourceAlpha" type="matrix" values="0 0 0 0 0 0 0 0 0 0 0 0 0 0 0 0 0 0 127 0"/>
<feOffset dy="4"/>
<feGaussianBlur stdDeviation="10.5"/>
<feColorMatrix type="matrix" values="0 0 0 0 0 0 0 0 0 0 0 0 0 0 0 0 0 0 0.41 0"/>
<feBlend mode="normal" in2="BackgroundImageFix" result="effect1_dropShadow"/>
<feBlend mode="normal" in="SourceGraphic" in2="effect1_dropShadow" result="shape"/>
</filter>
<filter id="filter2_d" x="35.1872" y="16.77" width="107.494" height="52.3633" filterUnits="userSpaceOnUse" color-interpolation-filters="sRGB">
<feFlood flood-opacity="0" result="BackgroundImageFix"/>
<feColorMatrix in="SourceAlpha" type="matrix" values="0 0 0 0 0 0 0 0 0 0 0 0 0 0 0 0 0 0 127 0"/>
<feOffset dy="4"/>
<feGaussianBlur stdDeviation="10.5"/>
<feColorMatrix type="matrix" values="0 0 0 0 0 0 0 0 0 0 0 0 0 0 0 0 0 0 0.41 0"/>
<feBlend mode="normal" in2="BackgroundImageFix" result="effect1_dropShadow"/>
<feBlend mode="normal" in="SourceGraphic" in2="effect1_dropShadow" result="shape"/>
</filter>
<clipPath id="clip0">
<rect width="1440" height="1024" fill="white" transform="translate(-88 -304)"/>
</clipPath>
<clipPath id="clip1">
<rect width="38" height="34" fill="white" transform="translate(0.5 0.0202637)"/>
</clipPath>
</defs>
</svg>
