<svg width="32" height="32" viewBox="0 0 32 32" fill="none" xmlns="http://www.w3.org/2000/svg">
<path d="M27.8042 3.37923H20.7554C20.0471 1.58124 18.1922 0.279236 16 0.279236C13.8078 0.279236 11.9529 1.58124 11.2446 3.37923H4.19583C2.34089 3.37923 0.823212 4.77423 0.823212 6.47923V28.1792C0.823212 29.8842 2.34089 31.2792 4.19583 31.2792H27.8042C29.6591 31.2792 31.1768 29.8842 31.1768 28.1792V6.47923C31.1768 4.77423 29.6591 3.37923 27.8042 3.37923ZM16 3.37923C16.9275 3.37923 17.6863 4.07673 17.6863 4.92923C17.6863 5.78173 16.9275 6.47923 16 6.47923C15.0725 6.47923 14.3137 5.78173 14.3137 4.92923C14.3137 4.07673 15.0725 3.37923 16 3.37923ZM19.3726 25.0792H7.56845V21.9792H19.3726V25.0792ZM24.4315 18.8792H7.56845V15.7792H24.4315V18.8792ZM24.4315 12.6792H7.56845V9.57923H24.4315V12.6792Z" fill="black" fill-opacity="0.54"/>
</svg>
