<svg width="23" height="21" viewBox="0 0 23 21" fill="none" xmlns="http://www.w3.org/2000/svg">
<path d="M18.1536 9.65896H5.10152C4.07174 9.65896 3.23694 10.3958 3.23694 11.3048V17.0652C3.23694 17.9742 4.07174 18.711 5.10152 18.711H18.1536C19.1834 18.711 20.0182 17.9742 20.0182 17.0652V11.3048C20.0182 10.3958 19.1834 9.65896 18.1536 9.65896Z" stroke="white" stroke-linecap="round" stroke-linejoin="round"/>
<path d="M6.9661 9.65896V6.36729C6.9661 5.27603 7.45722 4.22947 8.33141 3.45784C9.2056 2.68621 10.3913 2.25271 11.6276 2.25271C12.8639 2.25271 14.0495 2.68621 14.9237 3.45784C15.7979 4.22947 16.289 5.27603 16.289 6.36729V9.65896" stroke="white" stroke-linecap="round" stroke-linejoin="round"/>
</svg>
