<svg width="35" height="28" viewBox="0 0 35 28" fill="none" xmlns="http://www.w3.org/2000/svg">
<path d="M30.2513 14.9765C30.3218 14.54 30.3747 14.1036 30.3747 13.6398C30.3747 13.1761 30.3218 12.7396 30.2513 12.3032L33.9713 10.0527C34.3063 9.84808 34.3944 9.47981 34.1828 9.17975L30.6568 4.46051C30.4452 4.16045 29.9692 4.05133 29.5814 4.16045L25.1914 5.52439C24.2747 4.97881 23.2874 4.52871 22.2119 4.18772L21.542 0.573282C21.4891 0.245937 21.1189 0.000427246 20.6781 0.000427246H13.626C13.1853 0.000427246 12.815 0.245937 12.7621 0.573282L12.0922 4.18772C11.0167 4.52871 10.0294 4.99245 9.11267 5.52439L4.72274 4.16045C4.31725 4.03769 3.85886 4.16045 3.6473 4.46051L0.121257 9.17975C-0.107936 9.47981 -0.00215479 9.84808 0.332819 10.0527L4.0528 12.3032C3.98228 12.7396 3.92938 13.1897 3.92938 13.6398C3.92938 14.0899 3.98228 14.54 4.0528 14.9765L0.332819 17.227C-0.00215479 17.4316 -0.0903061 17.7999 0.121257 18.0999L3.6473 22.8192C3.85886 23.1192 4.33488 23.2283 4.72274 23.1192L9.11267 21.7553C10.0294 22.3009 11.0167 22.751 12.0922 23.0919L12.7621 26.7064C12.815 27.0337 13.1853 27.2792 13.626 27.2792H20.6781C21.1189 27.2792 21.4891 27.0337 21.542 26.7064L22.2119 23.0919C23.2874 22.751 24.2747 22.2872 25.1914 21.7553L29.5814 23.1192C29.9869 23.242 30.4452 23.1192 30.6568 22.8192L34.1828 18.0999C34.3944 17.7999 34.3063 17.4316 33.9713 17.227L30.2513 14.9765ZM17.1521 18.4136C13.7494 18.4136 10.9815 16.2722 10.9815 13.6398C10.9815 11.0074 13.7494 8.86604 17.1521 8.86604C20.5547 8.86604 23.3226 11.0074 23.3226 13.6398C23.3226 16.2722 20.5547 18.4136 17.1521 18.4136Z" fill="black" fill-opacity="0.54"/>
</svg>
